<?xml version="1.0" encoding="utf-8"?>
<svg viewBox="0 0 500 500" width="100px" height="100px" xmlns="http://www.w3.org/2000/svg" xmlns:bx="https://boxy-svg.com"><defs><clipPath id="clip0_166_600"><rect width="186" height="27" fill="white"/></clipPath><bx:export><bx:file format="svg" width="100" height="100"/></bx:export></defs><g clip-path="url(#clip0_166_600)" transform="matrix(1, 0, 0, 1, 11.164236, 9.511954)"/><g><g transform="matrix(1, 0, 0, 1, -482.443695, -224.419525)"><path d="M 875.074 673.035 L 819.924 707.525 L 755.09 585.869 L 810.24 551.378 L 875.074 673.035 Z M 875.105 275.787 L 810.272 397.443 L 755.122 362.953 L 819.956 241.297 L 875.105 275.787 Z M 631.994 508.944 L 502.327 508.944 L 502.327 439.964 L 631.994 439.964 L 631.994 508.944 Z M 962.561 508.875 L 750.809 508.875 L 644.932 707.577 L 589.799 673.087 L 695.675 474.385 L 558.203 275.752 L 613.337 241.263 L 750.809 439.964 L 962.561 439.964 L 962.561 508.875 Z" fill="#020023" style=""/></g></g></svg>