<svg width="186" height="27" viewBox="0 0 186 27" fill="none" xmlns="http://www.w3.org/2000/svg">
<g clip-path="url(#clip0_166_600)">
<path d="M65.7889 24.7962V22.7551H65.5364C64.398 24.4802 62.4667 25.1562 60.1677 25.1562C56.4158 25.1562 54.1035 23.2731 54.1035 19.3664V8.80518H56.8897V19.0986C56.8897 21.7016 58.2851 22.8473 60.8011 22.8473C63.5563 22.8473 65.7091 21.2319 65.7091 17.7335V8.80518H68.4954V24.7918H65.7889V24.7962Z" fill="#020023"/>
<path d="M75.1182 8.80964V10.5655H75.3707C76.0528 9.60854 77.3197 8.44531 80.2654 8.44531C83.2111 8.44531 84.3983 9.63926 84.9697 11.0351H85.2222C85.9974 9.68755 87.4724 8.44531 90.5909 8.44531C93.8865 8.44531 96.0393 10.2187 96.0393 13.6864V24.7963H93.2841V13.9366C93.2841 11.8165 92.1457 10.7498 89.9131 10.7498C87.4104 10.7498 85.6386 12.1632 85.6386 15.2842V24.7919H82.8833V13.9322C82.8833 11.8121 81.7759 10.7454 79.5124 10.7454C77.0096 10.7454 75.2201 12.1589 75.2201 15.2798V24.7875H72.4648V8.80964H75.1226H75.1182Z" fill="#020023"/>
<path d="M106.709 8.43212C111.507 8.43212 114.151 11.3994 114.151 16.105V17.4833H101.58C101.642 20.8106 103.573 22.9439 106.709 22.9439C109.846 22.9439 111.064 21.2627 111.316 19.7878H113.819V20.2575C113.456 22.2196 111.586 25.1694 106.74 25.1694C101.894 25.1694 98.8867 22.2372 98.8867 16.7898C98.8867 11.3424 101.925 8.42773 106.709 8.42773V8.43212ZM111.489 15.3061C111.458 12.5758 109.828 10.6444 106.692 10.6444C103.556 10.6444 101.846 12.6066 101.624 15.3061H111.489Z" fill="#020023"/>
<path d="M119.851 8.80965V10.8639H120.104C121.26 9.12131 123.209 8.44971 125.503 8.44971C129.255 8.44971 131.598 10.3328 131.598 14.2395V24.8007H128.812V14.5073C128.812 11.9043 127.386 10.7586 124.87 10.7586C122.115 10.7586 119.931 12.3739 119.931 15.8724V24.8007H117.145V8.80965H119.851Z" fill="#020023"/>
<path d="M142.307 8.43213C146.457 8.43213 148.894 10.2845 148.894 14.2702V24.7963H146.298V22.6015H146.045C145.363 23.8394 143.684 25.1431 140.376 25.1431C136.894 25.1431 134.453 23.4004 134.453 20.4199C134.453 17.2507 136.876 15.8548 140.136 15.4466L146.2 14.6916V14.1122C146.2 11.6189 144.854 10.6269 142.24 10.6269C139.627 10.6269 138.059 11.6145 137.837 13.7171H135.224V13.2474C135.556 10.2801 138.121 8.43213 142.302 8.43213H142.307ZM140.836 22.9132C143.782 22.9132 146.205 21.3461 146.205 17.8126V16.8249L140.694 17.5448C138.555 17.8257 137.226 18.6114 137.226 20.2926C137.226 21.9738 138.635 22.9132 140.836 22.9132Z" fill="#020023"/>
<path d="M156.247 2.20361V24.7965H153.461V2.20361H156.247Z" fill="#020023"/>
<path d="M49.5187 2.20361V24.7965H46.7324V2.20361H49.5187Z" fill="#020023"/>
<path d="M162.297 8.80994V4.41602H165.083V8.80994H169.911V11.053H165.083V22.1629L165.336 22.4131H169.863V24.7966H166.443C163.799 24.7966 162.292 23.4929 162.292 20.8899V11.053H158.479V8.80994H162.292H162.297Z" fill="#020023"/>
<path d="M179.412 8.43213C183.563 8.43213 185.999 10.2845 185.999 14.2702V24.7963H183.403V22.6015H183.151C182.469 23.8394 180.79 25.1431 177.481 25.1431C173.999 25.1431 171.559 23.4004 171.559 20.4199C171.559 17.2507 173.982 15.8548 177.242 15.4466L183.306 14.6916V14.1122C183.306 11.6189 181.959 10.6269 179.346 10.6269C176.732 10.6269 175.164 11.6145 174.943 13.7171H172.329V13.2474C172.662 10.2801 175.226 8.43213 179.408 8.43213H179.412ZM177.942 22.9132C180.887 22.9132 183.31 21.3461 183.31 17.8126V16.8249L177.8 17.5448C175.66 17.8257 174.332 18.6114 174.332 20.2926C174.332 21.9738 175.74 22.9132 177.942 22.9132Z" fill="#020023"/>
<path d="M19.4909 17.9559L16 19.9531L20.104 26.9972L23.595 25L19.4909 17.9559Z" fill="#020023"/>
<path d="M20.106 0.00182175L16.002 7.0459L19.4929 9.04313L23.5969 1.99906L20.106 0.00182175Z" fill="#020023"/>
<path d="M8.2081 11.5049H0V15.4994H8.2081V11.5049Z" fill="#020023"/>
<path d="M29.1337 11.505H15.7297L9.02765 0L5.53711 1.99724L12.2391 13.4978L5.53711 25.0028L9.02765 27L15.7297 15.495H29.1337V11.505Z" fill="#020023"/>
</g>
<defs>
<clipPath id="clip0_166_600">
<rect width="186" height="27" fill="white"/>
</clipPath>
</defs>
</svg>
